<mxfile host="app.diagrams.net" modified="2023-09-14T11:40:38.863Z" agent="Mozilla/5.0 (Windows NT 10.0; Win64; x64) AppleWebKit/537.36 (KHTML, like Gecko) Chrome/116.0.0.0 Safari/537.36" etag="BHHrW1er5d-WZCMfA2hC" version="21.7.5" type="device">
  <diagram name="Strona-1" id="RFCZKXFTVOAzxU45ScVK">
    <mxGraphModel dx="1050" dy="542" grid="1" gridSize="10" guides="1" tooltips="1" connect="1" arrows="1" fold="1" page="1" pageScale="1" pageWidth="827" pageHeight="1169" math="0" shadow="0">
      <root>
        <mxCell id="0" />
        <mxCell id="1" parent="0" />
        <mxCell id="qy40lGcezs1Elsbzkqo5-3" value="Aplikacja Księgarni" style="shape=rect;html=1;verticalAlign=top;fontStyle=1;whiteSpace=wrap;align=center;fontSize=16;" parent="1" vertex="1">
          <mxGeometry x="150" width="910" height="930" as="geometry" />
        </mxCell>
        <mxCell id="xeGJBtiFmaIVh6h41Zp6-2" style="edgeStyle=none;curved=1;rounded=0;orthogonalLoop=1;jettySize=auto;html=1;entryX=0;entryY=0.5;entryDx=0;entryDy=0;fontSize=12;startSize=8;endSize=8;exitX=1;exitY=0.3333333333333333;exitDx=0;exitDy=0;exitPerimeter=0;endArrow=none;endFill=0;" parent="1" source="qy40lGcezs1Elsbzkqo5-2" target="hJ5amDxZeMhtgakDQaXU-15" edge="1">
          <mxGeometry relative="1" as="geometry" />
        </mxCell>
        <mxCell id="xeGJBtiFmaIVh6h41Zp6-12" style="edgeStyle=none;curved=1;rounded=0;orthogonalLoop=1;jettySize=auto;html=1;entryX=0;entryY=0.5;entryDx=0;entryDy=0;fontSize=12;startSize=8;endSize=8;exitX=1;exitY=0.3333333333333333;exitDx=0;exitDy=0;exitPerimeter=0;endArrow=none;endFill=0;" parent="1" source="hJ5amDxZeMhtgakDQaXU-1" target="qy40lGcezs1Elsbzkqo5-16" edge="1">
          <mxGeometry relative="1" as="geometry">
            <mxPoint x="310" y="330" as="sourcePoint" />
          </mxGeometry>
        </mxCell>
        <mxCell id="hJ5amDxZeMhtgakDQaXU-1" value="Administrator" style="shape=umlActor;verticalLabelPosition=bottom;verticalAlign=top;html=1;outlineConnect=0;fontSize=16;" parent="1" vertex="1">
          <mxGeometry x="40" y="470" width="60" height="120" as="geometry" />
        </mxCell>
        <mxCell id="qy40lGcezs1Elsbzkqo5-29" style="edgeStyle=none;curved=1;rounded=0;orthogonalLoop=1;jettySize=auto;html=1;entryX=0;entryY=0.5;entryDx=0;entryDy=0;fontSize=12;startSize=8;endSize=8;" parent="1" source="hJ5amDxZeMhtgakDQaXU-15" target="qy40lGcezs1Elsbzkqo5-28" edge="1">
          <mxGeometry relative="1" as="geometry" />
        </mxCell>
        <mxCell id="qy40lGcezs1Elsbzkqo5-31" style="edgeStyle=none;curved=1;rounded=0;orthogonalLoop=1;jettySize=auto;html=1;entryX=0;entryY=0.5;entryDx=0;entryDy=0;fontSize=12;startSize=8;endSize=8;" parent="1" source="hJ5amDxZeMhtgakDQaXU-15" target="qy40lGcezs1Elsbzkqo5-30" edge="1">
          <mxGeometry relative="1" as="geometry" />
        </mxCell>
        <mxCell id="1l_PIfcA9y4RQT2Jm7VL-16" value="" style="edgeStyle=orthogonalEdgeStyle;shape=connector;rounded=0;orthogonalLoop=1;jettySize=auto;html=1;labelBackgroundColor=default;strokeColor=default;fontFamily=Helvetica;fontSize=11;fontColor=default;endArrow=classic;" edge="1" parent="1" source="hJ5amDxZeMhtgakDQaXU-15" target="1l_PIfcA9y4RQT2Jm7VL-15">
          <mxGeometry relative="1" as="geometry" />
        </mxCell>
        <mxCell id="hJ5amDxZeMhtgakDQaXU-15" value="Logowanie" style="ellipse;whiteSpace=wrap;html=1;fontSize=16;" parent="1" vertex="1">
          <mxGeometry x="190" y="75" width="130" height="85" as="geometry" />
        </mxCell>
        <mxCell id="qy40lGcezs1Elsbzkqo5-2" value="User" style="shape=umlActor;verticalLabelPosition=bottom;verticalAlign=top;html=1;outlineConnect=0;fontSize=16;" parent="1" vertex="1">
          <mxGeometry x="40" y="80" width="60" height="120" as="geometry" />
        </mxCell>
        <mxCell id="qy40lGcezs1Elsbzkqo5-4" value="Przyjmij zamówienie" style="ellipse;whiteSpace=wrap;html=1;fontSize=16;" parent="1" vertex="1">
          <mxGeometry x="870" y="30" width="130" height="85" as="geometry" />
        </mxCell>
        <mxCell id="qy40lGcezs1Elsbzkqo5-5" value="Komunikat&amp;nbsp;&lt;br&gt;Błędnie wprowadzone dane" style="ellipse;whiteSpace=wrap;html=1;fontSize=16;" parent="1" vertex="1">
          <mxGeometry x="860" y="150" width="130" height="85" as="geometry" />
        </mxCell>
        <mxCell id="qy40lGcezs1Elsbzkqo5-9" value="Usunięcie danych" style="ellipse;whiteSpace=wrap;html=1;fontSize=16;" parent="1" vertex="1">
          <mxGeometry x="790" y="502.5" width="130" height="85" as="geometry" />
        </mxCell>
        <mxCell id="qy40lGcezs1Elsbzkqo5-10" value="Edytowanie danych" style="ellipse;whiteSpace=wrap;html=1;fontSize=16;" parent="1" vertex="1">
          <mxGeometry x="920" y="335" width="130" height="85" as="geometry" />
        </mxCell>
        <mxCell id="qy40lGcezs1Elsbzkqo5-11" value="&amp;lt;&amp;lt;include&amp;gt;&amp;gt;" style="edgeStyle=none;html=1;endArrow=open;verticalAlign=bottom;dashed=1;labelBackgroundColor=none;rounded=0;fontSize=12;startSize=8;endSize=8;curved=1;exitX=1;exitY=0.5;exitDx=0;exitDy=0;entryX=0;entryY=0.5;entryDx=0;entryDy=0;" parent="1" source="1l_PIfcA9y4RQT2Jm7VL-21" target="qy40lGcezs1Elsbzkqo5-10" edge="1">
          <mxGeometry width="160" relative="1" as="geometry">
            <mxPoint x="757.8246214093995" y="367.38979901669813" as="sourcePoint" />
            <mxPoint x="910" y="410" as="targetPoint" />
          </mxGeometry>
        </mxCell>
        <mxCell id="qy40lGcezs1Elsbzkqo5-12" value="&amp;lt;&amp;lt;include&amp;gt;&amp;gt;" style="edgeStyle=none;html=1;endArrow=open;verticalAlign=bottom;dashed=1;labelBackgroundColor=none;rounded=0;fontSize=12;startSize=8;endSize=8;curved=1;exitX=1;exitY=0.5;exitDx=0;exitDy=0;entryX=0;entryY=0.5;entryDx=0;entryDy=0;" parent="1" source="1l_PIfcA9y4RQT2Jm7VL-21" target="qy40lGcezs1Elsbzkqo5-9" edge="1">
          <mxGeometry width="160" relative="1" as="geometry">
            <mxPoint x="757.8246214093995" y="452.6102009833021" as="sourcePoint" />
            <mxPoint x="490" y="293" as="targetPoint" />
          </mxGeometry>
        </mxCell>
        <mxCell id="1l_PIfcA9y4RQT2Jm7VL-19" value="" style="edgeStyle=orthogonalEdgeStyle;shape=connector;rounded=0;orthogonalLoop=1;jettySize=auto;html=1;labelBackgroundColor=default;strokeColor=default;fontFamily=Helvetica;fontSize=11;fontColor=default;endArrow=classic;" edge="1" parent="1" source="qy40lGcezs1Elsbzkqo5-16" target="1l_PIfcA9y4RQT2Jm7VL-18">
          <mxGeometry relative="1" as="geometry" />
        </mxCell>
        <mxCell id="1l_PIfcA9y4RQT2Jm7VL-20" value="" style="edgeStyle=orthogonalEdgeStyle;shape=connector;rounded=0;orthogonalLoop=1;jettySize=auto;html=1;labelBackgroundColor=default;strokeColor=default;fontFamily=Helvetica;fontSize=11;fontColor=default;endArrow=classic;" edge="1" parent="1" source="qy40lGcezs1Elsbzkqo5-16" target="qy40lGcezs1Elsbzkqo5-25">
          <mxGeometry relative="1" as="geometry" />
        </mxCell>
        <mxCell id="qy40lGcezs1Elsbzkqo5-16" value="Logowanie" style="ellipse;whiteSpace=wrap;html=1;fontSize=16;" parent="1" vertex="1">
          <mxGeometry x="190" y="470" width="130" height="85" as="geometry" />
        </mxCell>
        <mxCell id="qy40lGcezs1Elsbzkqo5-19" value="Komunikat&amp;nbsp;&lt;br&gt;Błędnie wprowadzone dane" style="ellipse;whiteSpace=wrap;html=1;fontSize=16;" parent="1" vertex="1">
          <mxGeometry x="810" y="400" width="130" height="85" as="geometry" />
        </mxCell>
        <mxCell id="qy40lGcezs1Elsbzkqo5-20" value="&amp;lt;&amp;lt;extend&amp;gt;&amp;gt;" style="edgeStyle=none;html=1;startArrow=open;endArrow=none;startSize=12;verticalAlign=bottom;dashed=1;labelBackgroundColor=none;rounded=0;fontSize=12;curved=1;exitX=1;exitY=0.5;exitDx=0;exitDy=0;entryX=0;entryY=0.5;entryDx=0;entryDy=0;" parent="1" source="1l_PIfcA9y4RQT2Jm7VL-21" target="qy40lGcezs1Elsbzkqo5-19" edge="1">
          <mxGeometry width="160" relative="1" as="geometry">
            <mxPoint x="757.8246214093995" y="367.38979901669813" as="sourcePoint" />
            <mxPoint x="490" y="193" as="targetPoint" />
          </mxGeometry>
        </mxCell>
        <mxCell id="1l_PIfcA9y4RQT2Jm7VL-22" value="" style="edgeStyle=orthogonalEdgeStyle;shape=connector;rounded=0;orthogonalLoop=1;jettySize=auto;html=1;labelBackgroundColor=default;strokeColor=default;fontFamily=Helvetica;fontSize=11;fontColor=default;endArrow=classic;" edge="1" parent="1" source="qy40lGcezs1Elsbzkqo5-25" target="1l_PIfcA9y4RQT2Jm7VL-21">
          <mxGeometry relative="1" as="geometry" />
        </mxCell>
        <mxCell id="qy40lGcezs1Elsbzkqo5-25" value="Okno dodania książek" style="ellipse;whiteSpace=wrap;html=1;fontSize=16;" parent="1" vertex="1">
          <mxGeometry x="360" y="370" width="130" height="85" as="geometry" />
        </mxCell>
        <mxCell id="1l_PIfcA9y4RQT2Jm7VL-4" style="edgeStyle=orthogonalEdgeStyle;rounded=0;orthogonalLoop=1;jettySize=auto;html=1;entryX=0;entryY=0.5;entryDx=0;entryDy=0;" edge="1" parent="1" source="qy40lGcezs1Elsbzkqo5-28" target="1l_PIfcA9y4RQT2Jm7VL-2">
          <mxGeometry relative="1" as="geometry" />
        </mxCell>
        <mxCell id="qy40lGcezs1Elsbzkqo5-28" value="Składanie zamówienia" style="ellipse;whiteSpace=wrap;html=1;fontSize=16;" parent="1" vertex="1">
          <mxGeometry x="390" y="40" width="130" height="85" as="geometry" />
        </mxCell>
        <mxCell id="qy40lGcezs1Elsbzkqo5-33" value="" style="edgeStyle=none;curved=1;rounded=0;orthogonalLoop=1;jettySize=auto;html=1;fontSize=12;startSize=8;endSize=8;" parent="1" source="qy40lGcezs1Elsbzkqo5-30" target="qy40lGcezs1Elsbzkqo5-32" edge="1">
          <mxGeometry relative="1" as="geometry" />
        </mxCell>
        <mxCell id="qy40lGcezs1Elsbzkqo5-30" value="Wyczyść dane" style="ellipse;whiteSpace=wrap;html=1;fontSize=16;" parent="1" vertex="1">
          <mxGeometry x="390" y="140" width="130" height="85" as="geometry" />
        </mxCell>
        <mxCell id="qy40lGcezs1Elsbzkqo5-32" value="Wyczyszczenie pól" style="ellipse;whiteSpace=wrap;html=1;fontSize=16;" parent="1" vertex="1">
          <mxGeometry x="390" y="250" width="130" height="85" as="geometry" />
        </mxCell>
        <mxCell id="1l_PIfcA9y4RQT2Jm7VL-14" value="" style="edgeStyle=orthogonalEdgeStyle;shape=connector;rounded=0;orthogonalLoop=1;jettySize=auto;html=1;labelBackgroundColor=default;strokeColor=default;fontFamily=Helvetica;fontSize=11;fontColor=default;endArrow=classic;" edge="1" parent="1" source="1l_PIfcA9y4RQT2Jm7VL-2" target="1l_PIfcA9y4RQT2Jm7VL-10">
          <mxGeometry relative="1" as="geometry" />
        </mxCell>
        <mxCell id="1l_PIfcA9y4RQT2Jm7VL-2" value="&lt;font style=&quot;font-size: 14px;&quot;&gt;Dodaj zamówienie&lt;/font&gt;" style="ellipse;whiteSpace=wrap;html=1;" vertex="1" parent="1">
          <mxGeometry x="570" y="42.5" width="120" height="80" as="geometry" />
        </mxCell>
        <mxCell id="1l_PIfcA9y4RQT2Jm7VL-8" value="&amp;lt;&amp;lt;include&amp;gt;&amp;gt;" style="edgeStyle=none;html=1;endArrow=open;verticalAlign=bottom;dashed=1;labelBackgroundColor=none;rounded=0;fontSize=12;startSize=8;endSize=8;curved=1;exitX=1;exitY=0.5;exitDx=0;exitDy=0;entryX=0;entryY=0.5;entryDx=0;entryDy=0;" edge="1" parent="1" source="1l_PIfcA9y4RQT2Jm7VL-2" target="qy40lGcezs1Elsbzkqo5-4">
          <mxGeometry width="160" relative="1" as="geometry">
            <mxPoint x="690" y="85" as="sourcePoint" />
            <mxPoint x="820" y="75" as="targetPoint" />
          </mxGeometry>
        </mxCell>
        <mxCell id="1l_PIfcA9y4RQT2Jm7VL-9" value="&amp;lt;&amp;lt;extend&amp;gt;&amp;gt;" style="edgeStyle=none;html=1;startArrow=open;endArrow=none;startSize=12;verticalAlign=bottom;dashed=1;labelBackgroundColor=none;rounded=0;fontSize=12;curved=1;exitX=1;exitY=0.5;exitDx=0;exitDy=0;entryX=0;entryY=0.5;entryDx=0;entryDy=0;" edge="1" parent="1" source="1l_PIfcA9y4RQT2Jm7VL-2" target="qy40lGcezs1Elsbzkqo5-5">
          <mxGeometry width="160" relative="1" as="geometry">
            <mxPoint x="710" y="110" as="sourcePoint" />
            <mxPoint x="840" y="210" as="targetPoint" />
          </mxGeometry>
        </mxCell>
        <mxCell id="1l_PIfcA9y4RQT2Jm7VL-10" value="Drukuj paragon" style="ellipse;whiteSpace=wrap;html=1;fontSize=16;" vertex="1" parent="1">
          <mxGeometry x="580" y="180" width="130" height="85" as="geometry" />
        </mxCell>
        <mxCell id="1l_PIfcA9y4RQT2Jm7VL-15" value="Wyloguj" style="ellipse;whiteSpace=wrap;html=1;fontSize=16;" vertex="1" parent="1">
          <mxGeometry x="190" y="200" width="130" height="85" as="geometry" />
        </mxCell>
        <mxCell id="1l_PIfcA9y4RQT2Jm7VL-18" value="Wyloguj" style="ellipse;whiteSpace=wrap;html=1;fontSize=16;" vertex="1" parent="1">
          <mxGeometry x="150" y="585" width="130" height="85" as="geometry" />
        </mxCell>
        <mxCell id="1l_PIfcA9y4RQT2Jm7VL-21" value="Dodanie danych" style="ellipse;whiteSpace=wrap;html=1;fontSize=16;" vertex="1" parent="1">
          <mxGeometry x="530" y="350" width="130" height="85" as="geometry" />
        </mxCell>
        <mxCell id="1l_PIfcA9y4RQT2Jm7VL-23" value="Komunikat&lt;br&gt;Rekord nie został&lt;br&gt;wybrany" style="ellipse;whiteSpace=wrap;html=1;fontSize=16;" vertex="1" parent="1">
          <mxGeometry x="640" y="500" width="130" height="85" as="geometry" />
        </mxCell>
        <mxCell id="1l_PIfcA9y4RQT2Jm7VL-24" value="Wyczyszczenie pól" style="ellipse;whiteSpace=wrap;html=1;fontSize=16;" vertex="1" parent="1">
          <mxGeometry x="740" y="270" width="130" height="85" as="geometry" />
        </mxCell>
        <mxCell id="1l_PIfcA9y4RQT2Jm7VL-25" value="&amp;lt;&amp;lt;include&amp;gt;&amp;gt;" style="edgeStyle=none;html=1;endArrow=open;verticalAlign=bottom;dashed=1;labelBackgroundColor=none;rounded=0;fontSize=12;startSize=8;endSize=8;curved=1;exitX=1;exitY=0.5;exitDx=0;exitDy=0;entryX=0.5;entryY=1;entryDx=0;entryDy=0;" edge="1" parent="1" source="1l_PIfcA9y4RQT2Jm7VL-21" target="1l_PIfcA9y4RQT2Jm7VL-24">
          <mxGeometry width="160" relative="1" as="geometry">
            <mxPoint x="690" y="470" as="sourcePoint" />
            <mxPoint x="880" y="350" as="targetPoint" />
          </mxGeometry>
        </mxCell>
        <mxCell id="1l_PIfcA9y4RQT2Jm7VL-26" value="&amp;lt;&amp;lt;extend&amp;gt;&amp;gt;" style="edgeStyle=none;html=1;startArrow=open;endArrow=none;startSize=12;verticalAlign=bottom;dashed=1;labelBackgroundColor=none;rounded=0;fontSize=12;curved=1;exitX=1;exitY=0.5;exitDx=0;exitDy=0;entryX=0.5;entryY=0;entryDx=0;entryDy=0;" edge="1" parent="1" source="1l_PIfcA9y4RQT2Jm7VL-21" target="1l_PIfcA9y4RQT2Jm7VL-23">
          <mxGeometry width="160" relative="1" as="geometry">
            <mxPoint x="650" y="650" as="sourcePoint" />
            <mxPoint x="840" y="630" as="targetPoint" />
          </mxGeometry>
        </mxCell>
        <mxCell id="1l_PIfcA9y4RQT2Jm7VL-27" value="Odświerzanie bazy danych" style="ellipse;whiteSpace=wrap;html=1;fontSize=16;" vertex="1" parent="1">
          <mxGeometry x="480" y="455" width="130" height="85" as="geometry" />
        </mxCell>
        <mxCell id="1l_PIfcA9y4RQT2Jm7VL-28" value="" style="endArrow=classic;html=1;rounded=0;labelBackgroundColor=default;strokeColor=default;fontFamily=Helvetica;fontSize=11;fontColor=default;shape=connector;exitX=0.5;exitY=1;exitDx=0;exitDy=0;entryX=0;entryY=0;entryDx=0;entryDy=0;" edge="1" parent="1" source="qy40lGcezs1Elsbzkqo5-25" target="1l_PIfcA9y4RQT2Jm7VL-27">
          <mxGeometry width="50" height="50" relative="1" as="geometry">
            <mxPoint x="510" y="570" as="sourcePoint" />
            <mxPoint x="560" y="520" as="targetPoint" />
          </mxGeometry>
        </mxCell>
        <mxCell id="1l_PIfcA9y4RQT2Jm7VL-29" value="Okno dodania użytkowników" style="ellipse;whiteSpace=wrap;html=1;fontSize=16;" vertex="1" parent="1">
          <mxGeometry x="360" y="542" width="130" height="85" as="geometry" />
        </mxCell>
        <mxCell id="1l_PIfcA9y4RQT2Jm7VL-30" value="" style="endArrow=classic;html=1;rounded=0;labelBackgroundColor=default;strokeColor=default;fontFamily=Helvetica;fontSize=11;fontColor=default;shape=connector;exitX=1;exitY=1;exitDx=0;exitDy=0;entryX=0.5;entryY=0;entryDx=0;entryDy=0;" edge="1" parent="1" source="qy40lGcezs1Elsbzkqo5-16" target="1l_PIfcA9y4RQT2Jm7VL-29">
          <mxGeometry width="50" height="50" relative="1" as="geometry">
            <mxPoint x="510" y="770" as="sourcePoint" />
            <mxPoint x="560" y="720" as="targetPoint" />
          </mxGeometry>
        </mxCell>
        <mxCell id="1l_PIfcA9y4RQT2Jm7VL-31" value="Dodanie danych" style="ellipse;whiteSpace=wrap;html=1;fontSize=16;" vertex="1" parent="1">
          <mxGeometry x="500" y="600" width="130" height="85" as="geometry" />
        </mxCell>
        <mxCell id="1l_PIfcA9y4RQT2Jm7VL-33" value="" style="endArrow=classic;html=1;rounded=0;labelBackgroundColor=default;strokeColor=default;fontFamily=Helvetica;fontSize=11;fontColor=default;shape=connector;exitX=0.5;exitY=1;exitDx=0;exitDy=0;entryX=0;entryY=0.5;entryDx=0;entryDy=0;" edge="1" parent="1" source="1l_PIfcA9y4RQT2Jm7VL-29" target="1l_PIfcA9y4RQT2Jm7VL-31">
          <mxGeometry width="50" height="50" relative="1" as="geometry">
            <mxPoint x="510" y="770" as="sourcePoint" />
            <mxPoint x="560" y="720" as="targetPoint" />
          </mxGeometry>
        </mxCell>
        <mxCell id="1l_PIfcA9y4RQT2Jm7VL-36" value="Wyczyszczenie pól" style="ellipse;whiteSpace=wrap;html=1;fontSize=16;" vertex="1" parent="1">
          <mxGeometry x="900" y="685" width="130" height="85" as="geometry" />
        </mxCell>
        <mxCell id="1l_PIfcA9y4RQT2Jm7VL-37" value="Edytowanie danych" style="ellipse;whiteSpace=wrap;html=1;fontSize=16;" vertex="1" parent="1">
          <mxGeometry x="750" y="710" width="130" height="85" as="geometry" />
        </mxCell>
        <mxCell id="1l_PIfcA9y4RQT2Jm7VL-38" value="Komunikat&amp;nbsp;&lt;br&gt;Błędnie wprowadzone dane" style="ellipse;whiteSpace=wrap;html=1;fontSize=16;" vertex="1" parent="1">
          <mxGeometry x="600" y="720" width="130" height="85" as="geometry" />
        </mxCell>
        <mxCell id="1l_PIfcA9y4RQT2Jm7VL-39" value="Usunięcie danych" style="ellipse;whiteSpace=wrap;html=1;fontSize=16;" vertex="1" parent="1">
          <mxGeometry x="910" y="587.5" width="130" height="85" as="geometry" />
        </mxCell>
        <mxCell id="1l_PIfcA9y4RQT2Jm7VL-42" value="&amp;lt;&amp;lt;include&amp;gt;&amp;gt;" style="edgeStyle=none;html=1;endArrow=open;verticalAlign=bottom;dashed=1;labelBackgroundColor=none;rounded=0;fontSize=12;startSize=8;endSize=8;curved=1;exitX=1;exitY=0.5;exitDx=0;exitDy=0;entryX=0;entryY=0.5;entryDx=0;entryDy=0;" edge="1" parent="1" source="1l_PIfcA9y4RQT2Jm7VL-31" target="1l_PIfcA9y4RQT2Jm7VL-39">
          <mxGeometry width="160" relative="1" as="geometry">
            <mxPoint x="610" y="708" as="sourcePoint" />
            <mxPoint x="755" y="670" as="targetPoint" />
          </mxGeometry>
        </mxCell>
        <mxCell id="1l_PIfcA9y4RQT2Jm7VL-43" value="&amp;lt;&amp;lt;include&amp;gt;&amp;gt;" style="edgeStyle=none;html=1;endArrow=open;verticalAlign=bottom;dashed=1;labelBackgroundColor=none;rounded=0;fontSize=12;startSize=8;endSize=8;curved=1;exitX=1;exitY=0.5;exitDx=0;exitDy=0;entryX=0;entryY=0;entryDx=0;entryDy=0;" edge="1" parent="1" source="1l_PIfcA9y4RQT2Jm7VL-31" target="1l_PIfcA9y4RQT2Jm7VL-36">
          <mxGeometry width="160" relative="1" as="geometry">
            <mxPoint x="620" y="738" as="sourcePoint" />
            <mxPoint x="765" y="700" as="targetPoint" />
          </mxGeometry>
        </mxCell>
        <mxCell id="1l_PIfcA9y4RQT2Jm7VL-44" value="&amp;lt;&amp;lt;include&amp;gt;&amp;gt;" style="edgeStyle=none;html=1;endArrow=open;verticalAlign=bottom;dashed=1;labelBackgroundColor=none;rounded=0;fontSize=12;startSize=8;endSize=8;curved=1;exitX=1;exitY=0.5;exitDx=0;exitDy=0;entryX=0;entryY=0;entryDx=0;entryDy=0;" edge="1" parent="1" source="1l_PIfcA9y4RQT2Jm7VL-31" target="1l_PIfcA9y4RQT2Jm7VL-37">
          <mxGeometry width="160" relative="1" as="geometry">
            <mxPoint x="545" y="723" as="sourcePoint" />
            <mxPoint x="690" y="685" as="targetPoint" />
          </mxGeometry>
        </mxCell>
        <mxCell id="1l_PIfcA9y4RQT2Jm7VL-45" value="&amp;lt;&amp;lt;extend&amp;gt;&amp;gt;" style="edgeStyle=none;html=1;startArrow=open;endArrow=none;startSize=12;verticalAlign=bottom;dashed=1;labelBackgroundColor=none;rounded=0;fontSize=12;curved=1;entryX=0.5;entryY=0;entryDx=0;entryDy=0;" edge="1" parent="1" target="1l_PIfcA9y4RQT2Jm7VL-38">
          <mxGeometry width="160" relative="1" as="geometry">
            <mxPoint x="630" y="650" as="sourcePoint" />
            <mxPoint x="600" y="752.5" as="targetPoint" />
          </mxGeometry>
        </mxCell>
        <mxCell id="1l_PIfcA9y4RQT2Jm7VL-46" value="Komunikat&lt;br&gt;Rekord nie został&lt;br&gt;wybrany" style="ellipse;whiteSpace=wrap;html=1;fontSize=16;" vertex="1" parent="1">
          <mxGeometry x="430" y="730" width="130" height="85" as="geometry" />
        </mxCell>
        <mxCell id="1l_PIfcA9y4RQT2Jm7VL-47" value="&amp;lt;&amp;lt;extend&amp;gt;&amp;gt;" style="edgeStyle=none;html=1;startArrow=open;endArrow=none;startSize=12;verticalAlign=bottom;dashed=1;labelBackgroundColor=none;rounded=0;fontSize=12;curved=1;exitX=1;exitY=0.5;exitDx=0;exitDy=0;entryX=1;entryY=0.5;entryDx=0;entryDy=0;" edge="1" parent="1" source="1l_PIfcA9y4RQT2Jm7VL-31" target="1l_PIfcA9y4RQT2Jm7VL-46">
          <mxGeometry width="160" relative="1" as="geometry">
            <mxPoint x="410" y="702.5" as="sourcePoint" />
            <mxPoint x="560" y="752.5" as="targetPoint" />
          </mxGeometry>
        </mxCell>
        <mxCell id="1l_PIfcA9y4RQT2Jm7VL-48" value="" style="endArrow=classic;html=1;rounded=0;labelBackgroundColor=default;strokeColor=default;fontFamily=Helvetica;fontSize=11;fontColor=default;shape=connector;exitX=0.738;exitY=0.922;exitDx=0;exitDy=0;entryX=0.5;entryY=0;entryDx=0;entryDy=0;exitPerimeter=0;" edge="1" parent="1" source="qy40lGcezs1Elsbzkqo5-16" target="1l_PIfcA9y4RQT2Jm7VL-49">
          <mxGeometry width="50" height="50" relative="1" as="geometry">
            <mxPoint x="510" y="670" as="sourcePoint" />
            <mxPoint x="560" y="620" as="targetPoint" />
          </mxGeometry>
        </mxCell>
        <mxCell id="1l_PIfcA9y4RQT2Jm7VL-49" value="Okno analityki" style="ellipse;whiteSpace=wrap;html=1;fontSize=16;" vertex="1" parent="1">
          <mxGeometry x="230" y="815" width="130" height="85" as="geometry" />
        </mxCell>
      </root>
    </mxGraphModel>
  </diagram>
</mxfile>
